<svg width="120" height="120" viewBox="0 0 120 120" fill="none" xmlns="http://www.w3.org/2000/svg">
<g clip-path="url(#clip0)">
<path d="M0 0H120V120H0V0Z" fill="#1E222D"/>
<path d="M0 0H120V120H0V0Z" fill="#1E232D"/>
<path fill-rule="evenodd" clip-rule="evenodd" d="M108.673 73.095C108.593 71.8475 108.766 70.5966 109.183 69.4181C109.601 68.2396 110.253 67.1581 111.1 66.239C122.014 54.473 123.612 36.276 113.994 22.596C102.939 6.873 81.254 3.072 65.56 14.106C54.075 22.181 48.98 35.963 51.405 48.936C51.5953 49.9684 51.5638 51.0295 51.3126 52.0487C51.0614 53.068 50.5962 54.0222 49.948 54.848C47.4554 58.028 45.5727 61.6419 44.395 65.507C44.3886 65.5283 44.3763 65.5473 44.3596 65.5618C44.3428 65.5764 44.3223 65.586 44.3004 65.5894C44.2785 65.5929 44.256 65.5901 44.2356 65.5813C44.2152 65.5726 44.1977 65.5583 44.185 65.54C37.269 55.702 23.701 53.324 13.881 60.228C4.06104 67.132 1.70704 80.704 8.62404 90.542C15.54 100.38 29.108 102.758 38.928 95.854C39.8867 95.1803 40.7896 94.4305 41.628 93.612C43.574 91.713 47.393 91.876 48.956 94.1C59.416 108.979 79.936 112.575 94.788 102.134C104.504 95.302 109.388 84.154 108.673 73.095Z" fill="#2A2E39"/>
<path d="M59.8768 104.486C83.1489 104.486 102.015 85.6202 102.015 62.348C102.015 39.0758 83.1489 20.21 59.8768 20.21C36.6046 20.21 17.7388 39.0758 17.7388 62.348C17.7388 85.6202 36.6046 104.486 59.8768 104.486Z" fill="#1E222D"/>
<path d="M59.8772 105.73C83.6172 105.73 102.864 86.483 102.864 62.742C102.864 39.398 83.4292 19.755 59.8772 19.755C36.1352 19.755 16.8892 39.001 16.8892 62.742C16.8892 86.483 36.1352 105.73 59.8772 105.73Z" fill="#1E222D" stroke="white" stroke-width="2"/>
<path fill-rule="evenodd" clip-rule="evenodd" d="M60.8781 19.928C60.8781 19.6628 60.7727 19.4084 60.5852 19.2209C60.3976 19.0334 60.1433 18.928 59.8781 18.928C59.6129 18.928 59.3585 19.0334 59.171 19.2209C58.9834 19.4084 58.8781 19.6628 58.8781 19.928V24.804C58.8781 25.0692 58.9834 25.3236 59.171 25.5111C59.3585 25.6986 59.6129 25.804 59.8781 25.804C60.1433 25.804 60.3976 25.6986 60.5852 25.5111C60.7727 25.3236 60.8781 25.0692 60.8781 24.804V19.928ZM60.8781 100.759C60.8781 100.494 60.7727 100.239 60.5852 100.052C60.3976 99.8643 60.1433 99.759 59.8781 99.759C59.6129 99.759 59.3585 99.8643 59.171 100.052C58.9834 100.239 58.8781 100.494 58.8781 100.759V105.634C58.8781 105.899 58.9834 106.154 59.171 106.341C59.3585 106.529 59.6129 106.634 59.8781 106.634C60.1433 106.634 60.3976 106.529 60.5852 106.341C60.7727 106.154 60.8781 105.899 60.8781 105.634V100.759ZM16.8301 62.491C16.8301 62.2258 16.9354 61.9714 17.123 61.7839C17.3105 61.5964 17.5649 61.491 17.8301 61.491H22.7201C22.9853 61.491 23.2396 61.5964 23.4272 61.7839C23.6147 61.9714 23.7201 62.2258 23.7201 62.491C23.7201 62.7562 23.6147 63.0106 23.4272 63.1981C23.2396 63.3856 22.9853 63.491 22.7201 63.491H17.8301C17.5649 63.491 17.3105 63.3856 17.123 63.1981C16.9354 63.0106 16.8301 62.7562 16.8301 62.491ZM97.0361 61.491C96.7709 61.491 96.5165 61.5964 96.329 61.7839C96.1414 61.9714 96.0361 62.2258 96.0361 62.491C96.0361 62.7562 96.1414 63.0106 96.329 63.1981C96.5165 63.3856 96.7709 63.491 97.0361 63.491H101.926C102.191 63.491 102.446 63.3856 102.633 63.1981C102.821 63.0106 102.926 62.7562 102.926 62.491C102.926 62.2258 102.821 61.9714 102.633 61.7839C102.446 61.5964 102.191 61.491 101.926 61.491H97.0361ZM29.5231 32.425C29.616 32.332 29.7262 32.2583 29.8476 32.2079C29.969 32.1576 30.0992 32.1317 30.2306 32.1317C30.362 32.1317 30.4921 32.1576 30.6135 32.2079C30.7349 32.2583 30.8452 32.332 30.9381 32.425L34.3851 35.873C34.5672 36.0616 34.668 36.3142 34.6658 36.5764C34.6635 36.8386 34.5583 37.0894 34.3729 37.2748C34.1875 37.4602 33.9367 37.5654 33.6745 37.5677C33.4123 37.5699 33.1597 37.4692 32.9711 37.287L29.5231 33.839C29.3356 33.6515 29.2303 33.3972 29.2303 33.132C29.2303 32.8668 29.3356 32.6125 29.5231 32.425ZM88.9301 32.425C89.1187 32.2428 89.3713 32.142 89.6335 32.1443C89.8957 32.1466 90.1465 32.2518 90.3319 32.4372C90.5173 32.6226 90.6225 32.8734 90.6247 33.1356C90.627 33.3978 90.5262 33.6504 90.3441 33.839L86.8961 37.287C86.7075 37.4692 86.4549 37.5699 86.1927 37.5677C85.9305 37.5654 85.6797 37.4602 85.4943 37.2748C85.3088 37.0894 85.2037 36.8386 85.2014 36.5764C85.1991 36.3142 85.2999 36.0616 85.4821 35.873L88.9301 32.425ZM85.3701 88.274C85.5576 88.0868 85.8117 87.9817 86.0766 87.9817C86.3415 87.9817 86.5956 88.0868 86.7831 88.274L90.2311 91.721C90.4132 91.9096 90.514 92.1622 90.5117 92.4244C90.5095 92.6866 90.4043 92.9374 90.2189 93.1228C90.0335 93.3082 89.7827 93.4134 89.5205 93.4157C89.2583 93.4179 89.0057 93.3172 88.8171 93.135L85.3691 89.688C85.1816 89.5005 85.0763 89.2462 85.0763 88.981C85.0763 88.7158 85.1816 88.4615 85.3691 88.274H85.3701ZM33.6031 89.143C33.7852 88.9544 33.886 88.7018 33.8838 88.4396C33.8815 88.1774 33.7763 87.9266 33.5909 87.7412C33.4055 87.5558 33.1547 87.4506 32.8925 87.4483C32.6303 87.446 32.3777 87.5468 32.1891 87.729L28.7411 91.176C28.5536 91.3636 28.4483 91.6181 28.4484 91.8833C28.4485 92.1486 28.5539 92.403 28.7416 92.5905C28.9292 92.778 29.1837 92.8833 29.4489 92.8832C29.7142 92.8831 29.9686 92.7776 30.1561 92.59L33.6031 89.143Z" fill="#B2B5BE"/>
<path d="M60.2988 84.417C71.8968 84.417 81.2988 75.015 81.2988 63.417C81.2988 51.819 71.8968 42.417 60.2988 42.417C48.7008 42.417 39.2988 51.819 39.2988 63.417C39.2988 75.015 48.7008 84.417 60.2988 84.417Z" fill="#75F1FF"/>
<path d="M60.2969 67.417C61.9537 67.417 63.2969 66.0738 63.2969 64.417C63.2969 62.7601 61.9537 61.417 60.2969 61.417C58.64 61.417 57.2969 62.7601 57.2969 64.417C57.2969 66.0738 58.64 67.417 60.2969 67.417Z" stroke="#1E232D" stroke-width="2"/>
<path d="M71.8432 74.624L62.6722 66.532M60.2432 60.417V47.417V60.417Z" stroke="#1E232D" stroke-width="2" stroke-linecap="round"/>
</g>
<defs>
<clipPath id="clip0">
<rect width="120" height="120" fill="white"/>
</clipPath>
</defs>
</svg>
