<svg width="120" height="120" viewBox="0 0 120 120" fill="none" xmlns="http://www.w3.org/2000/svg">
<path d="M0 0H120V120H0V0Z" fill="#1E222D"/>
<path d="M0 0H120V120H0V0Z" fill="#1E232D"/>
<path fill-rule="evenodd" clip-rule="evenodd" d="M89.486 30.997C103.507 54.549 104.03 80.097 90.656 88.059C77.28 96.021 55.072 83.382 41.051 59.829C27.031 36.277 26.507 10.729 39.882 2.768C53.257 -5.194 75.466 7.444 89.486 30.997ZM69.72 115.197C61.922 109.952 58.869 100.841 62.9 94.847C66.932 88.853 76.522 88.246 84.32 93.491C92.118 98.736 95.171 107.847 91.14 113.841C87.108 119.835 77.518 120.442 69.72 115.197Z" fill="#2A2E39"/>
<path d="M107 19H19C16.2386 19 14 21.2386 14 24V97C14 99.7614 16.2386 102 19 102H107C109.761 102 112 99.7614 112 97V24C112 21.2386 109.761 19 107 19Z" fill="#1E222D" stroke="white" stroke-width="2"/>
<path d="M14 29H112.29" stroke="#B2B5BE" stroke-width="2"/>
<path d="M20 24H26" stroke="white" stroke-width="2" stroke-linecap="round"/>
<path d="M1.63184 56.393C10.1428 59.608 33.7958 72.563 48.3208 98.663C62.9808 71.907 102.626 67.173 109.434 68.591" stroke="white" stroke-width="2" stroke-linecap="round" stroke-linejoin="round"/>
<path d="M109.434 68.553C105.589 64.708 93.9119 58.073 87.9399 54.816" stroke="white" stroke-width="2" stroke-linecap="round" stroke-linejoin="round" stroke-dasharray="5 5"/>
<path d="M71.9351 63.75C80.3812 63.75 87.2281 56.9031 87.2281 48.457C87.2281 40.0109 80.3812 33.164 71.9351 33.164C63.489 33.164 56.6421 40.0109 56.6421 48.457C56.6421 56.9031 63.489 63.75 71.9351 63.75Z" fill="#75F1FF"/>
<path d="M71.934 53.566C75.6028 53.566 78.577 50.5918 78.577 46.923C78.577 43.2542 75.6028 40.28 71.934 40.28C68.2652 40.28 65.291 43.2542 65.291 46.923C65.291 50.5918 68.2652 53.566 71.934 53.566Z" stroke="#1E222D" stroke-width="2"/>
<path d="M83.0099 59.571C81.8293 57.7016 80.1944 56.1617 78.2578 55.095C76.3211 54.0284 74.1458 53.4696 71.9349 53.471C69.7239 53.4697 67.5487 54.0285 65.612 55.0952C63.6754 56.1618 62.0405 57.7017 60.8599 59.571" stroke="#1E222D" stroke-width="2"/>
</svg>
