<svg width="120" height="120" viewBox="0 0 120 120" fill="none" xmlns="http://www.w3.org/2000/svg">
<path d="M0 0H120V120H0V0Z" fill="#1E222D"/>
<path d="M0 0H120V120H0V0Z" fill="#1E232D"/>
<path fill-rule="evenodd" clip-rule="evenodd" d="M74.4952 10.466C72.7122 11.171 70.1202 9.248 69.4832 7.439C69.3112 6.94726 69.0741 6.48078 68.7782 6.052C65.0352 0.636003 52.7182 2.662 41.2662 10.578C29.8162 18.493 23.5682 29.3 27.3112 34.716C31.0552 40.132 43.3732 38.106 54.8242 30.19C56.2602 29.197 58.6882 30.71 58.5882 32.453C58.5612 32.938 58.5472 33.426 58.5472 33.917C58.5472 47.837 69.8312 59.122 83.7512 59.122C97.6712 59.122 108.956 47.837 108.956 33.917C108.956 19.997 97.6712 8.712 83.7512 8.712C80.4832 8.712 77.3612 9.334 74.4952 10.466ZM64.6902 76.567C66.5732 79.292 65.9272 83.382 63.3622 87.782C62.9572 88.476 62.9722 89.337 63.3482 90.048C66.1202 95.304 64.6252 101.895 59.6612 105.326C55.4252 108.254 49.9312 108.007 45.9632 105.106C45.2842 104.61 44.3852 104.475 43.6262 104.836C34.5702 109.14 26.1952 109.53 23.2232 105.231C19.4792 99.815 25.7272 89.008 37.1782 81.093C48.6282 73.177 60.9462 71.151 64.6902 76.567Z" fill="#2A2E39"/>
<path d="M58 105C81.7482 105 101 85.7482 101 62C101 38.2518 81.7482 19 58 19C34.2518 19 15 38.2518 15 62C15 85.7482 34.2518 105 58 105Z" fill="#1E222D" stroke="white" stroke-width="2" stroke-linejoin="round"/>
<path d="M47.0199 20.643C30.2599 36.309 25.3649 72.854 47.0199 103.618M98.2629 47.693H17.7319H98.2629ZM78.8629 79.898H19.0179H78.8629ZM57.9999 19.16V104.839V19.16ZM67.9449 20.382C84.7049 36.097 89.5999 72.757 67.9449 103.618V20.382Z" stroke="white" stroke-width="2" stroke-linejoin="round"/>
<path d="M71.0239 82.694H92.2629V103.933H71.0239V82.694Z" fill="#1E222D"/>
<path d="M73.7988 102.5C80.2882 102.5 85.5488 97.2393 85.5488 90.75C85.5488 84.2607 80.2882 79 73.7988 79C67.3095 79 62.0488 84.2607 62.0488 90.75C62.0488 97.2393 67.3095 102.5 73.7988 102.5Z" fill="#1E222D"/>
<path d="M72.5 105.769L67.2 101.808L63.668 98.818" stroke="#1E222D" stroke-width="2"/>
<path fill-rule="evenodd" clip-rule="evenodd" d="M99.8988 83.133C97.6358 80.603 94.2858 79 90.5648 79C87.58 79.0102 84.6966 80.0846 82.4328 82.03C80.2528 80.07 77.3448 79 74.2558 79C67.4418 79 61.9458 84.301 61.9458 90.85C61.9458 93.2 62.6608 95.441 63.9628 97.335L64.6148 98.099L73.6948 90.121C73.6266 89.8687 73.592 89.6084 73.5918 89.347C73.5918 87.672 74.9808 86.315 76.6928 86.315C78.4058 86.315 79.7938 87.672 79.7938 89.347C79.7938 89.667 79.7438 89.975 79.6488 90.265L85.2928 95.093C85.6938 94.908 86.1428 94.804 86.6158 94.804C87.0158 94.804 87.3978 94.878 87.7488 95.013L99.8988 83.133ZM66.3098 99.86C66.4558 99.978 66.6058 100.094 66.7598 100.206L81.5688 111.477C81.7958 111.655 82.1138 111.744 82.3868 111.744C82.6588 111.744 82.9768 111.655 83.2038 111.477L98.3768 99.983C101.239 97.711 102.875 94.37 102.875 90.85C102.876 89.4103 102.604 87.9835 102.074 86.645L101.306 85.186L89.5018 96.728C89.6398 97.071 89.7148 97.445 89.7148 97.836C89.7148 99.51 88.3268 100.868 86.6148 100.868C84.9018 100.868 83.5138 99.51 83.5138 97.836C83.5138 97.516 83.5638 97.208 83.6578 96.918L78.0148 92.09C77.6138 92.275 77.1648 92.379 76.6918 92.379C76.1838 92.38 75.6832 92.2578 75.2328 92.023L66.3098 99.86Z" fill="#75F1FF"/>
<path d="M63.3848 83.432C65.3078 80.91 69.6668 77.868 73.9268 78.036C76.5138 78.138 79.5328 78.497 82.4728 80.781C87.6198 76.913 94.3888 77.007 100.097 81.779" stroke="#1E222D" stroke-width="2"/>
</svg>
