<svg width="120" height="120" viewBox="0 0 120 120" fill="none" xmlns="http://www.w3.org/2000/svg">
<path d="M0 0H120V120H0V0Z" fill="#1E222D"/>
<path d="M0 0H120V120H0V0Z" fill="#1E232D"/>
<path fill-rule="evenodd" clip-rule="evenodd" d="M85.1072 61.842C83.3972 62.678 80.7242 61.015 80.8912 59.118C81.5278 51.9135 80.1801 44.6721 76.9942 38.179C67.3402 18.425 43.5002 10.236 23.7472 19.89C3.99223 29.542 -4.19677 53.38 5.45623 73.136C15.1092 92.891 38.9482 101.08 58.7032 91.426C60.5688 90.5156 62.3608 89.4618 64.0632 88.274C66.9552 86.254 73.3142 88.492 74.8632 91.662C80.2702 102.726 93.6212 107.312 104.684 101.906C115.747 96.5 120.333 83.149 114.927 72.086C109.521 61.023 96.1702 56.436 85.1072 61.842Z" fill="#2A2E39"/>
<path d="M95 38H27C17.6112 38 10 45.6112 10 55C10 64.3888 17.6112 72 27 72H95C104.389 72 112 64.3888 112 55C112 45.6112 104.389 38 95 38Z" fill="#1E222D" stroke="white" stroke-width="2"/>
<path d="M63.662 59.874L67.598 90.774C67.713 91.676 68.874 91.969 69.403 91.23L75.219 83.11C75.3112 82.9816 75.4324 82.8768 75.5729 82.8043C75.7133 82.7319 75.869 82.6937 76.027 82.693L87.82 82.632C88.722 82.627 89.158 81.525 88.502 80.905L65.34 59.02C64.657 58.375 63.542 58.942 63.66 59.874H63.662Z" fill="#75F1FF"/>
<path d="M57.7702 24.525L45.0402 46.058L41.1322 20.74L48.5102 26.412C48.7609 26.6045 49.0536 26.7349 49.3644 26.7925C49.6752 26.85 49.9952 26.833 50.2982 26.743L57.7692 24.525H57.7702ZM83.3092 16.654L84.1162 16.063L83.3092 16.653C83.4959 16.9082 83.7404 17.1154 84.0227 17.2578C84.305 17.4002 84.617 17.4736 84.9332 17.472L90.5142 17.442L76.7872 30.323L79.2942 11.171L83.3092 16.654ZM33.3002 86.738L32.5852 87.436L33.3012 86.738C33.0805 86.5116 32.8093 86.3406 32.5098 86.2393C32.2103 86.138 31.891 86.1091 31.5782 86.155L22.6792 87.461L40.4482 65.343L40.7462 94.378L33.3012 86.738H33.3002ZM104.085 105.686L98.8732 87.013L115.156 98.432L108.213 99.486C107.9 99.5334 107.603 99.6543 107.347 99.8387C107.09 100.023 106.88 100.266 106.735 100.547L104.085 105.686Z" fill="#1E222D" stroke="white" stroke-width="2"/>
<path d="M69.9919 49.718L68.8669 53.935M58.3779 49.193L60.8209 53.935L58.3779 49.193Z" stroke="white" stroke-width="2" stroke-linecap="round"/>
<path d="M78.5528 70.159L82.3408 73.719M64.0288 70.646L64.3588 73.232L64.0288 70.646Z" stroke="#1E222D" stroke-width="2" stroke-linecap="round"/>
</svg>
