<svg width="120" height="120" viewBox="0 0 120 120" fill="none" xmlns="http://www.w3.org/2000/svg">
<path d="M0 0H120V120H0V0Z" fill="#1E232D"/>
<path fill-rule="evenodd" clip-rule="evenodd" d="M77.814 61C95.346 61 109.559 48.378 109.559 32.809C109.559 17.239 95.346 4.617 77.814 4.617C60.282 4.617 46.069 17.239 46.069 32.809C46.069 48.379 60.282 61 77.814 61ZM50 115.588C64.797 115.588 76.793 104.935 76.793 91.794C76.793 78.653 64.797 68 50 68C35.203 68 23.207 78.653 23.207 91.794C23.207 104.935 35.203 115.588 50 115.588Z" fill="#2A2E39"/>
<path d="M56 19H22C18.134 19 15 22.134 15 26V60C15 63.866 18.134 67 22 67H56C59.866 67 63 63.866 63 60V26C63 22.134 59.866 19 56 19Z" fill="#1E222D" stroke="white" stroke-width="2"/>
<path d="M47.524 48H30.692M28 54L30.692 48L28 54ZM50 54L47.524 48L50 54ZM47.524 48L39.459 28L30.691 48H47.524Z" stroke="white" stroke-width="2" stroke-linecap="round" stroke-linejoin="round"/>
<path d="M53 55C53 52.8783 53.8429 50.8434 55.3431 49.3431C56.8434 47.8429 58.8783 47 61 47H99C101.122 47 103.157 47.8429 104.657 49.3431C106.157 50.8434 107 52.8783 107 55V87C107 89.1217 106.157 91.1566 104.657 92.6569C103.157 94.1571 101.122 95 99 95H68.702C68.2477 94.9998 67.8068 95.1543 67.452 95.438L56.25 104.4C54.94 105.448 53.001 104.516 53.001 102.839V55H53Z" fill="#75F1FF"/>
<path d="M64 60H81M81 60V54M81 60H89.5M98 60H89.5M89.5 60C87.412 68.958 79.388 86.874 64 86.874M70.151 66.347C74.038 73.19 84.484 86.874 95.172 86.874" stroke="#1E232D" stroke-width="2" stroke-linecap="round" stroke-linejoin="round"/>
<path d="M70.153 46H62.035M52 68.117V66.042V68.117Z" stroke="#2A2E39" stroke-width="2" stroke-linecap="round"/>
</svg>
