<svg width="120" height="120" viewBox="0 0 120 120" fill="none" xmlns="http://www.w3.org/2000/svg">
<path d="M0 0H120V120H0V0Z" fill="#1E232D"/>
<path fill-rule="evenodd" clip-rule="evenodd" d="M59.94 104.755C76.4471 116.657 99.477 112.924 111.38 96.417C123.282 79.91 119.549 56.88 103.042 44.977C88.303 34.35 68.3641 36.187 55.7891 48.453C55.4198 48.8092 54.9371 49.0244 54.4253 49.0609C53.9136 49.0975 53.4052 48.9531 52.989 48.653C51.317 47.448 51.112 44.838 52.5131 43.325C53.1645 42.6211 53.7723 41.8781 54.333 41.1C61.8591 30.662 59.4991 16.098 49.0601 8.572C38.6221 1.045 24.059 3.406 16.532 13.844C9.00605 24.282 11.366 38.846 21.805 46.372L21.865 46.416C21.8748 46.4229 21.8826 46.4322 21.8877 46.4431C21.8929 46.4539 21.8951 46.4658 21.8943 46.4777C21.8935 46.4897 21.8897 46.5012 21.8831 46.5112C21.8766 46.5212 21.8676 46.5294 21.857 46.535C17.8698 48.655 14.4247 51.6652 11.789 55.332C2.25605 68.552 5.24605 86.998 18.467 96.532C26.84 102.569 37.3101 103.584 46.2831 100.157C49.7411 98.837 53.83 99.502 56.558 102.003C57.6306 102.986 58.7599 103.905 59.94 104.755Z" fill="#2A2E39"/>
<path d="M60 106.44C84.3005 106.44 104 86.7405 104 62.44C104 38.1395 84.3005 18.44 60 18.44C35.6995 18.44 16 38.1395 16 62.44C16 86.7405 35.6995 106.44 60 106.44Z" fill="#1E222D" stroke="white" stroke-width="2"/>
<path d="M85.8091 56.033C87.5341 56.327 88.0351 58.513 86.6111 59.529C80.1141 64.171 66.9961 73.273 62.6871 74.262C56.8751 75.597 51.0811 71.967 49.7461 66.154C48.4111 60.342 52.0411 54.548 57.8541 53.213C62.1631 52.223 77.9371 54.691 85.8091 56.033Z" fill="#75F1FF"/>
<path d="M60.0002 65.246C61.0987 65.246 61.9892 64.3555 61.9892 63.257C61.9892 62.1585 61.0987 61.268 60.0002 61.268C58.9017 61.268 58.0112 62.1585 58.0112 63.257C58.0112 64.3555 58.9017 65.246 60.0002 65.246Z" fill="#E0E3EB"/>
<path d="M96.4368 49.81L91.8388 51.041M67.9598 82H52.0398H67.9598ZM59.9998 25V35V25ZM21.1328 64H30.6528H21.1328ZM89.9998 64H98.9998H89.9998ZM33.1378 37.22L39.8698 43.952L33.1378 37.22ZM44.6628 28.592L46.6748 32.906L44.6628 28.592ZM24.9418 49.81L29.5398 51.041L24.9418 49.81ZM88.2398 37.22L81.5088 43.952L88.2398 37.22ZM76.7158 28.592L74.7038 32.906L76.7158 28.592Z" stroke="white" stroke-width="2" stroke-linecap="round"/>
</svg>
