<svg width="460" height="180" viewBox="0 0 460 180" fill="none" xmlns="http://www.w3.org/2000/svg">
<line x1="47.5" y1="95" x2="47.5" y2="176" stroke="#97969C"/>
<line x1="61.5" y1="69" x2="61.5" y2="122" stroke="#97969C"/>
<line x1="75.5" y1="56" x2="75.5" y2="109" stroke="#97969C"/>
<line x1="90.5" y1="25" x2="90.5" y2="98" stroke="#97969C"/>
<line x1="104.5" y1="20" x2="104.5" y2="95" stroke="#97969C"/>
<line x1="117.5" y1="45" x2="117.5" y2="85" stroke="#97969C"/>
<line x1="131.5" y1="53" x2="131.5" y2="93" stroke="#97969C"/>
<line x1="145.5" y1="49" x2="145.5" y2="85" stroke="#97969C"/>
<line x1="157.5" y1="53" x2="157.5" y2="127" stroke="#97969C"/>
<line x1="171.5" y1="62" x2="171.5" y2="112" stroke="#97969C"/>
<line x1="185.5" y1="77" x2="185.5" y2="127" stroke="#97969C"/>
<rect x="42" y="103" width="10" height="44" fill="#C74842"/>
<rect x="126" y="64" width="10" height="13" fill="#C74842"/>
<rect x="140" y="62" width="10" height="13" fill="#C74842"/>
<rect x="56" y="78" width="10" height="44" fill="#77DB5D"/>
<rect x="152" y="73" width="10" height="19" fill="#C74842"/>
<rect x="166" y="77" width="10" height="29" fill="#C74842"/>
<rect x="180" y="102" width="10" height="7" fill="#C74842"/>
<rect x="70" y="73" width="10" height="25" fill="#77DB5D"/>
<rect x="85" y="44" width="10" height="46" fill="#77DB5D"/>
<rect x="99" y="38" width="10" height="8" fill="#77DB5D"/>
<rect x="112" y="59" width="10" height="18" fill="#77DB5D"/>
<line x1="201.5" y1="95" x2="201.5" y2="176" stroke="#97969C"/>
<line x1="215.5" y1="69" x2="215.5" y2="122" stroke="#97969C"/>
<line x1="229.5" y1="56" x2="229.5" y2="109" stroke="#97969C"/>
<line x1="244.5" y1="25" x2="244.5" y2="98" stroke="#97969C"/>
<line x1="258.5" y1="20" x2="258.5" y2="95" stroke="#97969C"/>
<line x1="271.5" y1="45" x2="271.5" y2="85" stroke="#97969C"/>
<line x1="285.5" y1="53" x2="285.5" y2="93" stroke="#97969C"/>
<line x1="299.5" y1="49" x2="299.5" y2="85" stroke="#97969C"/>
<line x1="311.5" y1="53" x2="311.5" y2="127" stroke="#97969C"/>
<line x1="325.5" y1="62" x2="325.5" y2="112" stroke="#97969C"/>
<line x1="339.5" y1="77" x2="339.5" y2="127" stroke="#97969C"/>
<rect x="196" y="103" width="10" height="24" fill="#C74842"/>
<rect x="280" y="64" width="10" height="13" fill="#C74842"/>
<rect x="294" y="62" width="10" height="13" fill="#C74842"/>
<rect x="210" y="78" width="10" height="44" fill="#77DB5D"/>
<rect x="306" y="73" width="10" height="19" fill="#C74842"/>
<rect x="320" y="77" width="10" height="29" fill="#C74842"/>
<rect x="334" y="102" width="10" height="7" fill="#C74842"/>
<rect x="224" y="73" width="10" height="25" fill="#77DB5D"/>
<rect x="239" y="44" width="10" height="46" fill="#77DB5D"/>
<rect x="253" y="38" width="10" height="8" fill="#77DB5D"/>
<rect x="266" y="59" width="10" height="18" fill="#77DB5D"/>
<line x1="60" y1="164" x2="60" y2="147" stroke="#761F25" stroke-width="2"/>
<line x1="85" y1="98" x2="85" y2="147" stroke="#761F25" stroke-width="2"/>
<line x1="192" y1="115" x2="192" y2="139" stroke="#2AA82B" stroke-width="2"/>
<line x1="145" y1="98" x2="145" y2="115" stroke="#2AA82B" stroke-width="2"/>
<line x1="86" y1="148" x2="61" y2="148" stroke="#761F25" stroke-width="2"/>
<line x1="61" y1="165" y2="165" stroke="url(#paint0_linear)" stroke-width="2"/>
<line x1="144" y1="99" x2="84" y2="99" stroke="#761F25" stroke-width="2"/>
<line x1="191" y1="116" x2="144" y2="116" stroke="#2AA82B" stroke-width="2"/>
<path d="M290 139H191" stroke="url(#paint1_linear)" stroke-width="2"/>
<defs>
<linearGradient id="paint0_linear" x1="61" y1="164" x2="0" y2="164" gradientUnits="userSpaceOnUse">
<stop stop-color="#761F25"/>
<stop offset="1" stop-color="#761F25" stop-opacity="0"/>
</linearGradient>
<linearGradient id="paint1_linear" x1="191" y1="139" x2="290" y2="139" gradientUnits="userSpaceOnUse">
<stop stop-color="#2AA82B"/>
<stop offset="1" stop-color="#2AA82B" stop-opacity="0"/>
</linearGradient>
</defs>
</svg>
