<svg width="460" height="180" viewBox="0 0 460 180" fill="none" xmlns="http://www.w3.org/2000/svg">
<line x1="43.5" y1="72" x2="43.5" y2="119" stroke="#97969C"/>
<line x1="57.5" y1="61" x2="57.5" y2="114" stroke="#97969C"/>
<line x1="71.5" y1="61" x2="71.5" y2="114" stroke="#97969C"/>
<line x1="86.5" y1="30" x2="86.5" y2="103" stroke="#97969C"/>
<line x1="100.5" y1="12" x2="100.5" y2="87" stroke="#97969C"/>
<line x1="113.5" y1="37" x2="113.5" y2="77" stroke="#97969C"/>
<line x1="127.5" y1="45" x2="127.5" y2="85" stroke="#97969C"/>
<line x1="141.5" y1="41" x2="141.5" y2="77" stroke="#97969C"/>
<line x1="153.5" y1="45" x2="153.5" y2="119" stroke="#97969C"/>
<line x1="167.5" y1="54" x2="167.5" y2="104" stroke="#97969C"/>
<line x1="181.5" y1="69" x2="181.5" y2="119" stroke="#97969C"/>
<rect x="38" y="80" width="10" height="24" fill="#77DB5D"/>
<rect x="122" y="56" width="10" height="13" fill="#C74842"/>
<rect x="136" y="54" width="10" height="13" fill="#77DB5D"/>
<rect x="52" y="70" width="10" height="44" fill="#C74842"/>
<rect x="148" y="65" width="10" height="19" fill="#C74842"/>
<rect x="162" y="69" width="10" height="29" fill="#C74842"/>
<rect x="176" y="94" width="10" height="7" fill="#C74842"/>
<rect x="66" y="78" width="10" height="25" fill="#C74842"/>
<rect x="81" y="49" width="10" height="46" fill="#77DB5D"/>
<rect x="95" y="37" width="10" height="8" fill="#77DB5D"/>
<rect x="108" y="51" width="10" height="18" fill="#77DB5D"/>
<line x1="197.5" y1="75" x2="197.5" y2="128" stroke="#97969C"/>
<line x1="211.5" y1="61" x2="211.5" y2="114" stroke="#97969C"/>
<line x1="225.5" y1="48" x2="225.5" y2="101" stroke="#97969C"/>
<line x1="240.5" y1="17" x2="240.5" y2="90" stroke="#97969C"/>
<line x1="254.5" y1="12" x2="254.5" y2="87" stroke="#97969C"/>
<line x1="267.5" y1="37" x2="267.5" y2="77" stroke="#97969C"/>
<line x1="281.5" y1="45" x2="281.5" y2="85" stroke="#97969C"/>
<line x1="295.5" y1="41" x2="295.5" y2="77" stroke="#97969C"/>
<line x1="307.5" y1="45" x2="307.5" y2="119" stroke="#97969C"/>
<line x1="321.5" y1="54" x2="321.5" y2="104" stroke="#97969C"/>
<line x1="335.5" y1="69" x2="335.5" y2="119" stroke="#97969C"/>
<rect x="192" y="82" width="10" height="24" fill="#77DB5D"/>
<rect x="276" y="56" width="10" height="13" fill="#C74842"/>
<rect x="290" y="61" width="10" height="6" fill="#C74842"/>
<rect x="206" y="70" width="10" height="20" fill="#77DB5D"/>
<rect x="302" y="65" width="10" height="19" fill="#C74842"/>
<rect x="316" y="78" width="10" height="20" fill="#C74842"/>
<rect x="330" y="94" width="10" height="7" fill="#C74842"/>
<rect x="220" y="65" width="10" height="33" fill="#77DB5D"/>
<rect x="235" y="36" width="10" height="42" fill="#77DB5D"/>
<rect x="249" y="30" width="10" height="8" fill="#77DB5D"/>
<rect x="262" y="51" width="10" height="18" fill="#77DB5D"/>
<path fill-rule="evenodd" clip-rule="evenodd" d="M95 65H108V133H95V137H92V68H95V65ZM77 107H74V145H77V141H81V138H90V94H81V97H77V107ZM56 139H61V128H66V125H72V155H67V158H61V167H56V139ZM50 148H38V170H50V167H54V145H50V148ZM26 170H19V180H26V177H35V155H26V170ZM118 76H110V130H118V122H126V82H118V76ZM128 86H136V89H144V111H136V114H128V86ZM153 92H146V106H153V104H162V94H153V92Z" fill="#AA3D38"/>
<path fill-rule="evenodd" clip-rule="evenodd" d="M252 54H241V59H238V125H241V130H252V54ZM230 69H236V124H230V117H224V114H219V75H224V72H230V69ZM204 82H200V111H204H205H211H217V75H211V78H204V82ZM182 90H187V87H198V110H187V112H182V90ZM164 94H171V91H180V109H171V106H164V94ZM254 61H265V70H276V130H265V137H254V61ZM278 84H289V121H278V84ZM297 90H291V114H297V110H300V94H297V90ZM303 98H309V99H312V104H309V106H303V98Z" fill="#5DB945"/>
</svg>
