<svg width="461" height="182" viewBox="0 0 461 182" fill="none" xmlns="http://www.w3.org/2000/svg">
<line x1="43.5" y1="104.5" x2="43.5" y2="151.5" stroke="#97969C"/>
<line x1="57.5" y1="93.5" x2="57.5" y2="146.5" stroke="#97969C"/>
<line x1="71.5" y1="93.5" x2="71.5" y2="146.5" stroke="#97969C"/>
<line x1="86.5" y1="62.5" x2="86.5" y2="135.5" stroke="#97969C"/>
<line x1="100.5" y1="44.5" x2="100.5" y2="119.5" stroke="#97969C"/>
<line x1="113.5" y1="69.5" x2="113.5" y2="109.5" stroke="#97969C"/>
<line x1="127.5" y1="77.5" x2="127.5" y2="117.5" stroke="#97969C"/>
<line x1="141.5" y1="73.5" x2="141.5" y2="109.5" stroke="#97969C"/>
<line x1="153.5" y1="77.5" x2="153.5" y2="151.5" stroke="#97969C"/>
<line x1="167.5" y1="86.5" x2="167.5" y2="136.5" stroke="#97969C"/>
<line x1="181.5" y1="101.5" x2="181.5" y2="151.5" stroke="#97969C"/>
<rect x="38" y="112.5" width="10" height="24" fill="#77DB5D"/>
<rect x="122" y="88.5" width="10" height="13" fill="#C74842"/>
<rect x="136" y="86.5" width="10" height="13" fill="#77DB5D"/>
<rect x="52" y="102.5" width="10" height="44" fill="#C74842"/>
<rect x="148" y="97.5" width="10" height="19" fill="#C74842"/>
<rect x="162" y="101.5" width="10" height="29" fill="#C74842"/>
<rect x="176" y="126.5" width="10" height="7" fill="#C74842"/>
<rect x="66" y="110.5" width="10" height="25" fill="#C74842"/>
<rect x="81" y="81.5" width="10" height="46" fill="#77DB5D"/>
<rect x="95" y="69.5" width="10" height="8" fill="#77DB5D"/>
<rect x="108" y="83.5" width="10" height="18" fill="#77DB5D"/>
<line x1="197.5" y1="107.5" x2="197.5" y2="160.5" stroke="#97969C"/>
<line x1="211.5" y1="93.5" x2="211.5" y2="146.5" stroke="#97969C"/>
<line x1="225.5" y1="80.5" x2="225.5" y2="133.5" stroke="#97969C"/>
<line x1="240.5" y1="49.5" x2="240.5" y2="122.5" stroke="#97969C"/>
<line x1="254.5" y1="44.5" x2="254.5" y2="119.5" stroke="#97969C"/>
<line x1="267.5" y1="69.5" x2="267.5" y2="109.5" stroke="#97969C"/>
<line x1="281.5" y1="77.5" x2="281.5" y2="117.5" stroke="#97969C"/>
<line x1="295.5" y1="73.5" x2="295.5" y2="109.5" stroke="#97969C"/>
<line x1="307.5" y1="77.5" x2="307.5" y2="151.5" stroke="#97969C"/>
<line x1="321.5" y1="86.5" x2="321.5" y2="136.5" stroke="#97969C"/>
<line x1="335.5" y1="101.5" x2="335.5" y2="151.5" stroke="#97969C"/>
<rect x="192" y="114.5" width="10" height="24" fill="#77DB5D"/>
<rect x="276" y="88.5" width="10" height="13" fill="#C74842"/>
<rect x="290" y="93.5" width="10" height="6" fill="#C74842"/>
<rect x="206" y="102.5" width="10" height="20" fill="#77DB5D"/>
<rect x="302" y="97.5" width="10" height="19" fill="#C74842"/>
<rect x="316" y="110.5" width="10" height="20" fill="#C74842"/>
<rect x="330" y="126.5" width="10" height="7" fill="#C74842"/>
<rect x="220" y="97.5" width="10" height="33" fill="#77DB5D"/>
<rect x="235" y="68.5" width="10" height="42" fill="#77DB5D"/>
<rect x="249" y="62.5" width="10" height="8" fill="#77DB5D"/>
<rect x="262" y="83.5" width="10" height="18" fill="#77DB5D"/>
<path d="M100 49.5L1 181.5H414L255 43L197.5 119L140.5 71.5L132.5 80L100 49.5Z" stroke="url(#paint0_linear)"/>
<defs>
<linearGradient id="paint0_linear" x1="223" y1="43" x2="223" y2="159.5" gradientUnits="userSpaceOnUse">
<stop stop-color="white"/>
<stop offset="1" stop-color="#75F1FF" stop-opacity="0"/>
</linearGradient>
</defs>
</svg>
