<svg width="20" height="9" viewBox="0 0 20 9" fill="none" xmlns="http://www.w3.org/2000/svg">
<path d="M15.5 0C14.3 0 13.1667 0.46668 12.3542 1.27918L10 3.3625L9.99582 3.35832L8.73332 4.47082L8.74164 4.47914L6.49582 6.47082C5.9625 7 5.25418 7.29168 4.5 7.29168C2.94168 7.29168 1.675 6.02918 1.675 4.47918C1.675 2.92918 2.94168 1.66668 4.5 1.66668C5.25418 1.66668 5.9625 1.95836 6.53332 2.525L7.47914 3.3625L8.73746 2.25L7.68328 1.31668C6.83328 0.470859 5.7041 0.00418007 4.49996 0.00418007C2.01668 3.86208e-07 0 2.00836 0 4.47918C0 6.95 2.01668 8.95836 4.5 8.95836C5.7 8.95836 6.82918 8.49168 7.64582 7.68336L10 5.59586L10.0042 5.60004L11.2625 4.48336L11.2583 4.47918L13.5041 2.49168C14.0375 1.95836 14.7458 1.66668 15.5 1.66668C17.0583 1.66668 18.325 2.92918 18.325 4.47918C18.325 6.02918 17.0583 7.29168 15.5 7.29168C14.7458 7.29168 14.0375 7 13.4667 6.4375L12.5209 5.6L11.2625 6.71668L12.3167 7.65C13.1667 8.49582 14.2959 8.95832 15.4959 8.95832C17.9833 8.95836 20 6.95 20 4.47918C20 2.00836 17.9833 0 15.5 0Z" fill="white"/>
</svg>
