<svg width="29" height="29" viewBox="0 0 29 29" fill="none" xmlns="http://www.w3.org/2000/svg">
<path d="M29 0H0V29H29V0Z" fill="white" fill-opacity="0.01"/>
<path d="M8.45833 20.5417C10.1267 20.5417 11.4792 19.1892 11.4792 17.5208C11.4792 15.8525 10.1267 14.5 8.45833 14.5C6.78997 14.5 5.4375 15.8525 5.4375 17.5208C5.4375 19.1892 6.78997 20.5417 8.45833 20.5417Z" stroke="#75F1FF" stroke-width="1.20833" stroke-linecap="round" stroke-linejoin="round"/>
<path d="M20.5418 20.5417C22.2102 20.5417 23.5627 19.1892 23.5627 17.5208C23.5627 15.8525 22.2102 14.5 20.5418 14.5C18.8735 14.5 17.521 15.8525 17.521 17.5208C17.521 19.1892 18.8735 20.5417 20.5418 20.5417Z" stroke="#75F1FF" stroke-width="1.20833" stroke-linecap="round" stroke-linejoin="round"/>
<path d="M14.4998 8.45832C16.1682 8.45832 17.5207 7.10585 17.5207 5.43749C17.5207 3.76913 16.1682 2.41666 14.4998 2.41666C12.8315 2.41666 11.479 3.76913 11.479 5.43749C11.479 7.10585 12.8315 8.45832 14.4998 8.45832Z" stroke="#75F1FF" stroke-width="1.20833" stroke-linecap="round" stroke-linejoin="round"/>
<path d="M14.4998 26.5833C14.4998 23.2466 11.7949 20.5417 8.45817 20.5417C5.12145 20.5417 2.4165 23.2466 2.4165 26.5833" stroke="#75F1FF" stroke-width="1.20833" stroke-linecap="round" stroke-linejoin="round"/>
<path d="M26.5833 26.5833C26.5833 23.2466 23.8784 20.5417 20.5417 20.5417C17.205 20.5417 14.5 23.2466 14.5 26.5833" stroke="#75F1FF" stroke-width="1.20833" stroke-linecap="round" stroke-linejoin="round"/>
<path d="M20.5418 14.5C20.5418 11.1633 17.8369 8.45834 14.5002 8.45834C11.1635 8.45834 8.4585 11.1633 8.4585 14.5" stroke="#75F1FF" stroke-width="1.20833" stroke-linecap="round" stroke-linejoin="round"/>
</svg>
