<svg width="29" height="29" viewBox="0 0 29 29" fill="none" xmlns="http://www.w3.org/2000/svg">
<path d="M29 0H0V29H29V0Z" fill="white" fill-opacity="0.01"/>
<path d="M14.4998 26.5833C21.1733 26.5833 26.5832 21.1734 26.5832 14.5C26.5832 7.82655 21.1733 2.41666 14.4998 2.41666C7.8264 2.41666 2.4165 7.82655 2.4165 14.5C2.4165 21.1734 7.8264 26.5833 14.4998 26.5833Z" stroke="#75F1FF" stroke-width="1.20833" stroke-linecap="round" stroke-linejoin="round"/>
<path d="M12.774 16.9167H8.97633M8.4585 18.7292L8.97633 16.9167L8.4585 18.7292ZM13.2918 18.7292L12.774 16.9167L13.2918 18.7292ZM12.774 16.9167L10.8752 10.2708L8.97633 16.9167H12.774Z" stroke="#75F1FF" stroke-width="1.20833" stroke-linecap="round" stroke-linejoin="round"/>
<path d="M21.1458 14.5C21.1458 17.5208 18.9819 18.7292 16.3125 18.7292V10.2708C18.9819 10.2708 21.1458 11.4792 21.1458 14.5Z" stroke="#75F1FF" stroke-width="1.20833" stroke-linecap="round" stroke-linejoin="round"/>
</svg>
